<?xml version="1.0" standalone="no"?>
<!DOCTYPE svg PUBLIC "-//W3C//DTD SVG 20010904//EN"
 "http://www.w3.org/TR/2001/REC-SVG-20010904/DTD/svg10.dtd">
<svg version="1.0" xmlns="http://www.w3.org/2000/svg"
 width="24px" height="24px" viewBox="0 0 128.000000 128.000000"
 preserveAspectRatio="xMidYMid meet">

<g transform="translate(0.000000,128.000000) scale(0.100000,-0.100000)"
fill="#000000" stroke="none">
<path d="M413 1239 c-38 -11 -45 -44 -13 -54 32 -10 58 -52 66 -108 8 -50 9
-49 15 48 7 126 2 134 -68 114z"/>
<path d="M668 1227 c19 -20 22 -36 23 -103 l1 -79 17 67 c9 36 23 73 30 82 7
8 10 24 6 36 -5 16 -15 20 -52 20 l-46 0 21 -23z"/>
<path d="M238 1213 c-49 -8 -50 -18 -15 -194 26 -130 36 -165 50 -167 21 -4
21 -5 -3 113 -28 135 -27 168 7 195 21 17 25 25 17 37 -12 19 -19 21 -56 16z"/>
<path d="M892 1212 c-10 -3 -9 -8 4 -23 22 -24 34 -24 34 0 0 20 -17 31 -38
23z"/>
<path d="M992 1207 c-8 -10 -82 -364 -82 -391 0 -5 10 0 23 12 12 11 38 22 57
24 l34 3 33 165 c36 180 36 182 -24 193 -19 4 -35 1 -41 -6z"/>
<path d="M542 1188 c-9 -9 -12 -72 -12 -244 0 -128 3 -235 8 -237 4 -3 28 -8
55 -11 l47 -7 -2 253 -3 253 -40 3 c-23 2 -46 -3 -53 -10z"/>
<path d="M774 1146 c-3 -7 -24 -111 -48 -230 -42 -212 -42 -216 -22 -216 12 0
37 5 56 10 l36 10 37 192 c21 106 38 203 37 214 0 14 -8 24 -22 28 -38 10 -68
7 -74 -8z"/>
<path d="M342 1129 c-18 -3 -36 -10 -40 -13 -3 -4 7 -71 22 -150 27 -137 30
-146 65 -179 35 -33 79 -62 86 -55 2 2 -64 350 -75 394 -1 8 -31 9 -58 3z"/>
<path d="M108 1079 c-25 -14 -23 -24 21 -130 25 -61 45 -95 56 -97 14 -3 17 1
12 20 -3 12 -13 67 -23 121 -18 101 -25 110 -66 86z"/>
<path d="M1106 993 c-10 -54 -20 -109 -23 -121 -5 -19 -2 -23 12 -20 11 2 31
36 56 97 45 107 46 116 20 131 -41 21 -47 13 -65 -87z"/>
<path d="M164 787 c-9 -24 103 -719 118 -728 17 -11 699 -11 716 0 15 9 127
704 118 728 -4 9 -26 13 -72 13 -65 0 -68 -1 -99 -38 -60 -70 -190 -122 -305
-122 -115 0 -245 52 -305 122 -31 37 -34 38 -99 38 -46 0 -68 -4 -72 -13z"/>
</g>
</svg>
