<?xml version="1.0" standalone="no"?>
<!DOCTYPE svg PUBLIC "-//W3C//DTD SVG 20010904//EN"
 "http://www.w3.org/TR/2001/REC-SVG-20010904/DTD/svg10.dtd">
<svg version="1.0" xmlns="http://www.w3.org/2000/svg"
 width="500.000000pt" height="500.000000pt" viewBox="0 0 500.000000 500.000000"
 preserveAspectRatio="xMidYMid meet">

<g transform="translate(0.000000,500.000000) scale(0.100000,-0.100000)"
fill="#000000" stroke="none">
<path d="M2045 4058 c-82 -30 -195 -113 -338 -248 -247 -234 -429 -510 -518
-785 -18 -55 -33 -116 -33 -135 l-1 -35 210 0 209 0 7 35 c4 19 13 73 19 120
50 353 187 683 355 854 70 71 119 96 188 96 41 0 63 -6 98 -28 100 -64 200
-217 264 -401 13 -41 27 -76 29 -78 2 -2 16 31 31 74 55 159 110 256 194 346
57 61 107 87 166 87 66 0 108 -21 182 -92 187 -179 324 -516 373 -920 l12 -98
216 0 215 0 -7 40 c-20 128 -127 373 -232 533 -89 137 -159 219 -300 359 -137
135 -234 213 -321 257 -52 27 -71 31 -137 31 -58 0 -88 -5 -123 -22 -63 -30
-163 -125 -219 -210 -26 -38 -50 -66 -54 -61 -3 4 -27 38 -52 74 -58 82 -151
169 -212 197 -51 24 -167 29 -221 10z m-566 -973 c29 -9 26 -18 -9 -33 -16 -7
-32 -22 -35 -33 -9 -26 -17 -24 -37 11 -9 17 -24 30 -33 30 -22 0 -19 6 23 48
l37 38 17 -27 c9 -15 26 -30 37 -34z m2161 32 c0 -16 37 -51 64 -61 18 -6 17
-9 -12 -26 -18 -11 -38 -31 -44 -45 -14 -32 -20 -31 -36 3 -6 16 -27 36 -45
44 -29 14 -30 17 -12 23 28 11 65 46 65 62 0 7 5 13 10 13 6 0 10 -6 10 -13z"/>
<path d="M2079 3845 c-135 -73 -285 -500 -324 -920 l-7 -71 349 1 348 0 3 50
c5 74 -16 282 -44 435 -69 373 -198 574 -325 505z m2 -436 l23 -17 -26 -12
c-14 -7 -31 -24 -38 -38 l-11 -26 -20 32 c-11 17 -29 34 -40 37 -22 7 -26 25
-4 25 8 0 25 14 37 30 l22 31 17 -22 c9 -12 27 -30 40 -40z m207 -260 c39 -20
38 -28 -3 -50 -16 -8 -40 -35 -52 -58 l-22 -42 -19 44 c-15 34 -29 48 -63 64
l-44 21 30 12 c41 16 65 39 82 78 l14 34 22 -43 c13 -25 35 -50 55 -60z m-297
-149 l22 -12 -27 -24 c-14 -14 -26 -29 -26 -34 0 -6 -4 -10 -10 -10 -5 0 -10
8 -10 18 0 10 -11 24 -24 32 l-24 12 31 32 c28 29 33 30 39 15 4 -10 17 -23
29 -29z"/>
<path d="M2874 3838 c-16 -13 -37 -32 -46 -43 -34 -40 -87 -163 -117 -267 -45
-163 -91 -474 -91 -624 l0 -54 351 1 351 0 -7 82 c-10 133 -53 360 -91 485
-104 344 -239 506 -350 420z m170 -330 c-21 -22 -34 -23 -34 -3 0 8 -5 15 -12
15 -6 0 -3 9 7 20 17 19 19 19 37 3 17 -15 17 -17 2 -35z m-105 -147 c12 -23
32 -43 50 -51 39 -16 39 -24 0 -40 -18 -8 -37 -27 -47 -47 -19 -40 -26 -41
-42 -4 -6 16 -27 37 -46 47 -19 10 -34 21 -34 24 1 3 15 14 33 25 18 11 39 35
47 52 8 18 16 33 17 33 2 0 11 -17 22 -39z m192 -310 c9 -9 24 -21 35 -27 17
-10 17 -12 -12 -27 -16 -8 -36 -28 -43 -43 l-12 -28 -19 29 c-10 16 -31 35
-46 43 -26 14 -27 15 -9 28 10 8 22 14 27 14 4 0 15 15 24 32 16 30 18 31 28
14 6 -11 18 -26 27 -35z"/>
<path d="M2442 2760 l-1303 -5 28 -27 c26 -25 35 -27 135 -30 123 -3 146 -14
110 -50 -18 -19 -38 -24 -111 -29 -71 -5 -108 -14 -183 -44 -66 -28 -110 -39
-151 -40 -78 -3 -86 -13 -54 -68 26 -43 89 -107 107 -107 5 0 29 -18 54 -39
25 -22 55 -42 66 -46 22 -7 28 -25 8 -25 -40 0 -123 33 -188 73 -79 50 -112
56 -180 36 -21 -6 -51 -22 -66 -35 l-29 -23 48 -1 c77 0 124 -34 166 -117 28
-57 84 -111 140 -136 42 -19 162 -49 168 -43 2 2 -1 27 -7 56 -47 250 79 465
311 530 170 47 329 7 452 -112 61 -60 68 -84 32 -103 -18 -10 -183 -96 -195
-103 -3 -1 -14 12 -24 29 -27 47 -72 69 -137 69 -66 0 -111 -25 -143 -80 -17
-29 -21 -52 -21 -130 0 -89 2 -97 30 -137 17 -24 44 -49 62 -58 48 -23 139
-19 199 9 82 38 77 46 -30 46 l-96 0 0 80 0 80 220 0 220 0 -2 -222 -3 -223
-87 -3 c-73 -2 -88 0 -89 13 -4 44 -3 44 -72 11 -76 -37 -181 -53 -261 -39
-117 20 -239 91 -289 169 -21 32 -25 34 -82 34 -48 0 -73 -7 -125 -34 -35 -18
-65 -37 -67 -43 -3 -9 56 -26 132 -38 22 -3 54 -8 70 -12 27 -5 28 -7 10 -14
-11 -4 -35 -8 -53 -8 -36 -1 -36 3 -7 -81 l12 -35 1358 0 1358 0 12 35 c28 81
28 80 3 80 -32 0 -68 11 -68 20 0 4 30 11 68 15 70 7 141 23 156 36 4 4 -26
23 -68 43 -61 29 -87 36 -136 36 l-60 0 -67 -68 c-82 -82 -152 -118 -263 -134
-242 -36 -462 123 -501 362 -45 271 136 507 404 527 236 19 445 -144 478 -372
10 -69 4 -159 -12 -202 -5 -12 -5 -24 -1 -27 11 -6 135 21 179 39 49 21 109
78 139 135 32 60 43 74 84 99 23 14 52 21 85 21 l50 0 -35 23 c-43 29 -94 47
-131 47 -35 0 -68 -14 -142 -62 -57 -36 -156 -66 -177 -53 -9 5 57 52 182 130
37 23 100 112 95 135 -2 11 -13 14 -41 12 -52 -4 -127 14 -206 50 -48 23 -87
32 -150 37 -56 4 -95 12 -113 24 -59 38 -20 57 115 57 101 0 105 1 131 28 15
15 27 30 27 33 0 3 -39 5 -87 5 -49 0 -674 -3 -1391 -6z m257 -165 c89 -23
163 -65 224 -127 31 -32 57 -62 57 -66 0 -4 -53 -35 -117 -68 l-118 -61 -24
29 c-37 46 -80 68 -132 68 -111 0 -169 -73 -169 -212 0 -85 25 -146 73 -180
61 -43 198 -32 267 22 l25 20 -97 0 -98 0 0 80 0 80 165 0 165 0 0 -42 c0 -59
23 -138 59 -210 26 -50 31 -71 31 -129 l0 -69 -90 0 -90 0 0 29 0 30 -58 -30
c-158 -82 -363 -53 -493 68 -92 86 -139 198 -139 333 0 212 126 380 327 435
64 18 166 18 232 0z"/>
<path d="M3319 2348 c-52 -29 -81 -86 -87 -168 -5 -77 8 -126 45 -171 34 -40
73 -59 123 -59 109 0 179 100 167 237 -11 116 -72 183 -164 183 -30 0 -62 -8
-84 -22z"/>
<path d="M1200 1551 c0 -17 163 -506 173 -519 7 -9 246 -12 1155 -10 l1146 3
27 80 c15 44 57 164 92 268 l64 187 -1329 0 c-809 0 -1328 -4 -1328 -9z m2094
-67 c20 -20 21 -58 1 -74 -9 -7 -17 -11 -18 -9 -1 2 -13 19 -25 37 -19 26 -21
36 -12 48 16 18 35 18 54 -2z m-1309 -35 c48 -13 83 -43 101 -86 19 -45 17
-77 -7 -124 -51 -100 -211 -105 -275 -9 -22 34 -26 48 -22 90 8 79 51 117 158
139 3 0 23 -4 45 -10z m1513 -16 c38 -18 38 -20 11 -49 -19 -20 -22 -21 -50
-7 -31 16 -63 11 -57 -8 2 -6 25 -19 51 -29 27 -10 54 -24 62 -30 21 -17 27
-60 14 -92 -24 -57 -115 -76 -189 -38 -51 26 -54 33 -26 59 23 22 25 22 56 6
36 -19 75 -17 75 5 0 8 -18 19 -44 27 -59 17 -91 48 -91 87 1 42 30 74 77 85
41 10 61 7 111 -16z m-1801 -11 c62 -44 79 -135 38 -198 -25 -39 -89 -64 -167
-64 l-68 0 0 146 0 147 83 -5 c65 -3 90 -9 114 -26z m532 -15 c22 -24 54 -59
70 -78 l31 -34 0 78 0 77 40 0 41 0 -3 -142 -3 -143 -26 -3 c-22 -3 -38 10
-95 73 l-69 77 -5 -73 -5 -74 -37 -3 -38 -3 0 145 0 146 30 0 c22 0 40 -11 69
-43z m467 -14 c15 -32 44 -95 64 -140 21 -45 35 -84 32 -87 -3 -3 -22 -6 -42
-6 -32 0 -38 4 -53 35 -16 34 -18 35 -77 35 -59 0 -61 -1 -77 -35 -15 -32 -20
-35 -61 -35 -24 0 -42 4 -40 10 2 5 32 70 68 144 l65 135 48 1 47 0 26 -57z
m186 -45 l3 -103 53 -3 52 -3 0 -40 0 -39 -90 0 -90 0 0 145 0 145 35 0 34 0
3 -102z m311 88 c52 -22 79 -59 84 -113 9 -101 -49 -154 -178 -161 l-79 -5 0
147 0 146 70 0 c39 0 85 -6 103 -14z"/>
<path d="M1885 1355 c-30 -30 -31 -54 -4 -89 16 -20 29 -26 59 -26 30 0 43 6
59 26 27 35 26 55 -4 88 -32 34 -77 35 -110 1z"/>
<path d="M1580 1310 l0 -70 28 0 c16 0 36 8 45 18 18 19 22 68 9 89 -7 12 -54
33 -73 33 -5 0 -9 -31 -9 -70z"/>
<path d="M2603 1330 c-11 -29 -10 -30 18 -30 33 0 33 0 17 35 -15 32 -21 32
-35 -5z"/>
<path d="M3100 1310 c0 -70 0 -70 28 -70 78 1 95 103 21 129 -17 6 -36 11 -40
11 -5 0 -9 -31 -9 -70z"/>
<path d="M1265 930 c-45 -5 -50 -7 -50 -30 0 -17 7 -26 25 -31 34 -9 2496 -10
2540 -1 26 6 36 14 38 31 3 15 -2 24 -15 27 -24 7 -2475 10 -2538 4z"/>
</g>
</svg>
