<?xml version="1.0" encoding="UTF-8"?>
<svg version="1.1" xmlns="http://www.w3.org/2000/svg" width="512" height="512">
<path d="M0 0 C1.95913411 0.5050422 3.91862472 1.00870328 5.87844849 1.51106262 C9.96741073 2.56274134 14.05336854 3.62513311 18.13720703 4.6965332 C23.32630593 6.05786461 28.51984637 7.40113272 33.71545219 8.73739147 C38.72850202 10.02734757 43.73939601 11.32558116 48.75 12.625 C50.14907404 12.9870305 50.14907404 12.9870305 51.5764122 13.35637474 C88.27008624 22.8760067 88.27008624 22.8760067 94.8203125 31.01953125 C98.30299892 37.46895054 99.0549876 44.24626111 99.92520142 51.42585754 C100.05350039 52.44723192 100.18179936 53.4686063 100.31398618 54.52093142 C100.74146149 57.93494922 101.16100054 61.34989443 101.58056641 64.76489258 C101.88580246 67.21590988 102.19152446 69.66686671 102.49769592 72.11776733 C103.2408958 78.07735405 103.97897045 84.03755523 104.71472313 89.99806426 C105.57161454 96.93789469 106.43459858 103.87696334 107.2978956 110.81599935 C108.83748545 123.19245694 110.37193711 135.569546 111.90332031 147.94702148 C113.3899919 159.96304976 114.87969304 171.9786968 116.37304688 183.99389648 C116.46511829 184.73468851 116.55718971 185.47548054 116.65205117 186.23872081 C117.02212311 189.21620442 117.39220175 192.1936872 117.76229278 195.17116844 C119.27092901 207.30920576 120.7772311 219.4475329 122.28314161 231.58590865 C122.62663408 234.35458976 122.97021634 237.12325969 123.31387377 239.89192033 C124.29274969 247.77856308 125.27035397 255.66536135 126.24595451 263.55241013 C126.54224501 265.94627581 126.83895064 268.34009016 127.13609123 270.73385048 C127.54000321 273.98846755 127.94240799 277.24326735 128.34439087 280.49812317 C128.52327361 281.93549158 128.52327361 281.93549158 128.70577013 283.40189773 C128.812522 284.26892843 128.91927387 285.13595914 129.02926064 286.0292635 C129.12234713 286.78111244 129.21543363 287.53296139 129.31134093 288.30759364 C129.5078125 290.14453125 129.5078125 290.14453125 129.5078125 292.14453125 C208.3778125 292.14453125 287.2478125 292.14453125 368.5078125 292.14453125 C369.4978125 288.18453125 370.4878125 284.22453125 371.5078125 280.14453125 C372.2362938 277.63181192 372.98660368 275.12519707 373.76953125 272.62890625 C374.06281059 271.68884735 374.06281059 271.68884735 374.36201477 270.72979736 C374.96993871 268.78369706 375.58250427 266.83909829 376.1953125 264.89453125 C376.61554756 263.55218134 377.03547118 262.20973389 377.45507812 260.8671875 C378.46961475 257.62533483 379.48724491 254.38448932 380.5078125 251.14453125 C379.45351799 251.14821842 378.39922348 251.15190559 377.31298065 251.1557045 C351.65705943 251.24451145 326.00115814 251.31023843 300.34511566 251.35177994 C287.93802934 251.37240318 275.53104458 251.4005194 263.12402344 251.44628906 C252.30978467 251.48616391 241.49561946 251.51196579 230.68130922 251.52088523 C224.95545122 251.52609883 219.22980362 251.53834807 213.50401306 251.56745148 C208.11305421 251.5946306 202.72239217 251.60297109 197.33137131 251.59696198 C195.35449485 251.59806108 193.37760831 251.60599995 191.40079117 251.62135315 C188.696967 251.6413201 185.99425641 251.63644606 183.29040527 251.62554932 C182.51217266 251.63720068 181.73394004 251.64885205 180.93212461 251.66085649 C175.3793455 251.60056619 171.16850133 250.19466065 166.5078125 247.14453125 C164.44921875 244.92578125 164.44921875 244.92578125 163.0703125 242.64453125 C162.36068359 241.5153125 162.36068359 241.5153125 161.63671875 240.36328125 C158.83899375 234.86463835 158.72913976 229.0278334 160.5078125 223.14453125 C162.51474875 218.2786575 166.07750476 214.89489008 170.5078125 212.14453125 C175.9571586 210.24793247 180.7700601 209.85244737 186.51182556 209.86605835 C187.39577029 209.86026595 188.27971502 209.85447355 189.19044596 209.84850562 C192.13994085 209.83155727 195.08927878 209.82863356 198.03881836 209.82568359 C200.15805442 209.81638186 202.27728682 209.80621282 204.39651489 209.79524231 C210.14177716 209.76795598 215.88701493 209.75279688 221.63232493 209.73981428 C227.63947912 209.72417783 233.64658331 209.69738922 239.65370178 209.67178345 C251.02551695 209.62500484 262.39734154 209.58825624 273.76920372 209.55511057 C286.71715547 209.51688275 299.66505701 209.46747429 312.61296642 209.41712642 C339.24454931 209.31382017 365.87615333 209.22603138 392.5078125 209.14453125 C396.7978125 194.95453125 401.0878125 180.76453125 405.5078125 166.14453125 C399.03671875 166.16547852 392.565625 166.18642578 385.8984375 166.20800781 C364.54056918 166.27422645 343.18269688 166.3186499 321.82475281 166.35177994 C308.87286141 166.37240468 295.92106726 166.4005238 282.96923828 166.44628906 C271.68036013 166.48615928 260.39155242 166.5119647 249.10260582 166.52088523 C243.12524064 166.52609961 237.14807696 166.53835386 231.17077637 166.56745148 C225.54343736 166.59462325 219.91638267 166.60297255 214.2889843 166.59696198 C212.22503044 166.59806141 210.16106696 166.60600462 208.09716988 166.62135315 C205.27512586 166.64130841 202.45414975 166.63645008 199.63208008 166.62554932 C198.81882893 166.63720068 198.00557777 166.64885205 197.16768265 166.66085649 C190.63834016 166.59286881 185.4131901 164.71337862 180.484375 160.35546875 C176.24554347 154.5975184 174.1209895 148.94887289 174.703125 141.71875 C176.05000431 134.43335739 179.41232149 129.41137496 185.5078125 125.14453125 C191.46688407 121.49219706 198.51054229 121.99930945 205.25991821 122.01081848 C206.23663054 122.00855292 207.21334286 122.00628737 208.21965253 122.00395316 C211.48970879 121.9976274 214.75972346 121.99844162 218.02978516 121.99926758 C220.37570245 121.99627514 222.72161925 121.99287242 225.0675354 121.98908997 C231.43968607 121.98025294 237.81182331 121.97791193 244.18397951 121.97727418 C248.83564682 121.97644404 253.48731114 121.97354408 258.1389774 121.9704377 C270.65525484 121.96213416 283.17152516 121.95839517 295.68780525 121.95910744 C296.75330601 121.95916737 296.75330601 121.95916737 297.84033203 121.95922852 C298.55153884 121.9592694 299.26274565 121.95931028 299.99550419 121.9593524 C311.51038017 121.95975847 323.0252234 121.95019828 334.54008992 121.93609015 C346.37835005 121.92170093 358.21659424 121.91482141 370.05486333 121.91568393 C376.69506192 121.91601509 383.33523034 121.91310726 389.97542191 121.90250587 C396.22494923 121.89280089 402.47440426 121.89276221 408.72393417 121.90002251 C411.01195634 121.90106546 413.29998306 121.89872271 415.58799744 121.89266205 C444.95467999 121.81994062 444.95467999 121.81994062 454.5703125 128.12109375 C459.6820978 133.45961146 461.1809481 139.36468564 461.0703125 146.58203125 C461.09416016 147.26201172 461.11800781 147.94199219 461.14257812 148.64257812 C461.12842928 153.92009578 459.89129754 158.72598897 458.37841797 163.74853516 C458.15760024 164.48926049 457.93678251 165.22998583 457.70927334 165.99315739 C454.99384868 174.99553447 451.97228271 183.89426275 448.94921875 192.796875 C448.3169804 194.66725672 447.68506603 196.53774797 447.05345154 198.40834045 C445.39639751 203.3134452 443.73554798 208.21725558 442.07366943 213.12072754 C439.45688093 220.84390683 436.84594062 228.56906701 434.23458481 236.29408455 C433.58632816 238.21166279 432.93794419 240.12919798 432.28943253 242.04668999 C423.46404152 268.14367555 414.71291117 294.2680114 406.10966492 320.43920898 C403.07395762 329.53600472 398.06464439 337.46373574 389.5078125 342.14453125 C382.51799123 344.29796391 375.40596651 344.43049016 368.15354919 344.39849854 C367.05287945 344.40161852 365.95220971 344.4047385 364.81818634 344.40795302 C361.15274258 344.41589103 357.4874663 344.40962573 353.82202148 344.40332031 C351.18493163 344.40603202 348.54785309 344.40952199 345.9107666 344.41394043 C339.5055459 344.42280857 333.10037221 344.42092404 326.69514971 344.41511515 C321.48760488 344.41058888 316.28007317 344.40998992 311.07252693 344.41216278 C310.32990816 344.41246925 309.5872894 344.41277571 308.82216703 344.41309147 C307.31332095 344.41373095 305.80447487 344.41437938 304.29562879 344.41503665 C290.165439 344.42073228 276.03527521 344.41419389 261.90508968 344.40343592 C249.79226358 344.39449925 237.67947581 344.39605488 225.56665039 344.40527344 C211.48368403 344.41598644 197.40074041 344.42018497 183.31777054 344.41404891 C181.81494113 344.41341184 180.31211172 344.4127831 178.8092823 344.41216278 C178.06995293 344.41185423 177.33062355 344.41154568 176.56889025 344.41122778 C171.36973247 344.40950407 166.17058918 344.41240891 160.97143364 344.41712189 C154.63244374 344.42274209 148.29350334 344.42119028 141.95451909 344.4105604 C138.72300205 344.40531927 135.49158409 344.40430451 132.26006508 344.4098587 C128.75165884 344.41533242 125.24348372 344.40845761 121.73509216 344.39849854 C120.72146384 344.40295998 119.70783552 344.40742142 118.66349119 344.41201806 C108.93401141 344.35853492 100.94175881 343.40318897 93.69140625 336.38671875 C87.30642504 329.58851329 85.24095234 322.36512008 84.09179688 313.31616211 C83.97518393 312.45911304 83.85857098 311.60206398 83.7384243 310.71904373 C83.3504501 307.85028541 82.97604319 304.97992352 82.6015625 302.109375 C82.32218695 300.02205277 82.04198051 297.9348416 81.76101685 295.84773254 C80.99344306 290.12778099 80.23767077 284.40632279 79.48377228 278.68455505 C78.68293826 272.62306885 77.87082461 266.5630939 77.06005859 260.50292969 C75.16216693 246.29930731 73.28005619 232.09362006 71.40030468 217.88758886 C70.36394196 210.05594819 69.32589473 202.22453099 68.28766012 194.39313829 C67.96089336 191.92833598 67.63415628 189.46352973 67.30742264 186.99872303 C66.21111004 178.72869884 65.11439802 170.45872777 64.01715088 162.18882751 C63.69081068 159.72903962 63.36447953 157.26925052 63.03815699 154.80946028 C62.82155793 153.17677892 62.60494641 151.54409922 62.38832235 149.91142118 C61.09892678 140.19269342 59.81245347 130.47358757 58.53072083 120.75384611 C57.71986113 114.6051937 56.90715569 108.45678726 56.09303939 102.3085652 C55.52727387 98.03487445 54.96399191 93.76086637 54.40260005 89.48659903 C53.97990991 86.27428167 53.55339098 83.06247247 53.12744141 79.85058594 C52.97690559 78.69836516 52.82636978 77.54614439 52.67127228 76.35900784 C52.46197208 74.78896039 52.46197208 74.78896039 52.2484436 73.18719482 C52.12873514 72.27959789 52.00902668 71.37200096 51.88569069 70.43690109 C51.54453912 67.99184988 51.54453912 67.99184988 50.5078125 65.14453125 C47.87191563 64.22646054 45.36491662 63.51932309 42.65844727 62.87963867 C41.8355571 62.6742598 41.01266693 62.46888092 40.1648407 62.25727844 C38.37158403 61.81134535 36.57685094 61.37131848 34.7808857 60.93642235 C31.93098063 60.24557891 29.08563645 59.53826007 26.24095154 58.82624817 C19.16608336 57.05871881 12.08512596 55.31618493 5.00250244 53.58001709 C-0.96702664 52.1165543 -6.93301454 50.64008878 -12.894701 49.14498329 C-15.68440438 48.45090458 -18.47831404 47.77607717 -21.27281189 47.10160828 C-42.66364385 41.81762186 -42.66364385 41.81762186 -48.5546875 32.95703125 C-52.44749987 25.93334487 -52.81943754 17.45353143 -50.87890625 9.69140625 C-48.22494183 3.75213787 -43.09937058 -1.1535052 -37.23806763 -3.91902161 C-25.28402672 -7.99579369 -11.65338803 -3.07969051 0 0 Z " fill="#000001" transform="translate(51.4921875,36.85546875)"/>
<path d="M0 0 C9.99099243 6.67436669 16.38815013 15.31737646 19.47265625 26.953125 C21.824224 39.69568273 20.00546971 51.89808765 12.78515625 62.77734375 C6.04420473 71.5804007 -3.61895182 78.83761701 -14.90234375 80.33984375 C-29.0592676 81.22284207 -40.57758404 79.64900402 -51.90234375 70.33984375 C-59.94626897 62.89230358 -65.47108225 53.4733332 -66.140625 42.3984375 C-66.48010217 28.29178475 -64.03188243 17.03004027 -54.08984375 6.40234375 C-39.2851444 -7.4472137 -17.53399125 -10.02953739 0 0 Z " fill="#000001" transform="translate(400.90234375,399.66015625)"/>
<path d="M0 0 C9.38330115 6.79949358 15.75720078 15.9223251 18.25 27.3125 C19.59320775 41.29546272 18.04177862 53.32230382 8.8984375 64.5078125 C1.31332123 72.81189713 -7.98333607 78.81062871 -19.4375 79.55078125 C-33.87299645 79.92686304 -44.65442581 77.12920119 -55.75 67.3125 C-65.03286526 57.69529425 -68.08690178 45.87521206 -67.96484375 32.8828125 C-67.33526617 22.42037775 -62.41240112 11.56958519 -54.75 4.3125 C-39.06120735 -9.10980665 -17.62484749 -10.79747483 0 0 Z " fill="#000001" transform="translate(215.75,400.6875)"/>
</svg>
