<?xml version="1.0" standalone="no"?>
<!DOCTYPE svg PUBLIC "-//W3C//DTD SVG 20010904//EN"
 "http://www.w3.org/TR/2001/REC-SVG-20010904/DTD/svg10.dtd">
<svg version="1.0" xmlns="http://www.w3.org/2000/svg"
 width="24px" height="24px" viewBox="0 0 128.000000 128.000000"
 preserveAspectRatio="xMidYMid meet">

<g transform="translate(0.000000,128.000000) scale(0.100000,-0.100000)"
fill="#000000" stroke="none">
<path d="M527 1209 c-24 -14 -22 -56 3 -64 25 -8 50 10 50 36 0 24 -30 40 -53
28z"/>
<path d="M610 1135 c-11 -13 -11 -19 3 -32 21 -21 49 -9 45 19 -4 28 -30 35
-48 13z"/>
<path d="M700 1045 l-54 -55 -112 0 c-62 0 -119 -3 -128 -6 -20 -8 -21 -53 -2
-60 12 -5 9 -14 -15 -46 l-29 -41 0 -332 c0 -309 1 -333 18 -348 10 -10 28
-17 39 -17 16 0 19 -5 15 -25 -9 -51 4 -55 208 -55 204 0 217 4 208 55 -4 21
-1 25 17 25 12 0 29 8 38 18 15 17 17 56 17 349 l0 330 -29 41 c-24 32 -27 41
-15 46 19 7 18 52 -2 60 -9 3 -52 6 -97 6 l-81 0 37 38 c20 21 37 43 37 49 0
28 -20 18 -70 -32z m188 -477 c-3 -69 -6 -80 -32 -107 -36 -38 -70 -40 -170
-10 -133 40 -202 23 -266 -63 l-30 -42 0 88 c0 101 14 140 66 185 55 49 104
58 183 37 168 -47 195 -45 229 14 l17 30 3 -28 c2 -15 2 -62 0 -104z"/>
<path d="M542 1059 c2 -6 8 -10 13 -10 5 0 11 4 13 10 2 6 -4 11 -13 11 -9 0
-15 -5 -13 -11z"/>
</g>
</svg>
